<?xml version="1.0" encoding="UTF-8" standalone="no"?>
<!DOCTYPE svg PUBLIC "-//W3C//DTD SVG 1.1//EN"
 "http://www.w3.org/Graphics/SVG/1.1/DTD/svg11.dtd">
<!-- Generated by graphviz version 2.38.0 (20140413.2041)
 -->
<!-- Title: models_diagram Pages: 1 -->
<svg width="324pt" height="230pt"
 viewBox="0.00 0.00 324.15 230.00" xmlns="http://www.w3.org/2000/svg" xmlns:xlink="http://www.w3.org/1999/xlink">
<g id="graph0" class="graph" transform="scale(1 1) rotate(0) translate(4 226)">
<title>models_diagram</title>
<polygon fill="none" stroke="none" points="-4,4 -4,-226 320.146,-226 320.146,4 -4,4"/>
<!-- _diagram_info -->
<g id="node1" class="node"><title>_diagram_info</title>
<text text-anchor="start" x="8" y="-207.6" font-family="Times,serif" font-size="13.00">Models diagram</text>
<text text-anchor="start" x="8" y="-193.6" font-family="Times,serif" font-size="13.00">Date: Jul 18 2016 &#45; 21:35</text>
<text text-anchor="start" x="8" y="-179.6" font-family="Times,serif" font-size="13.00">Migration version: 20160719021703</text>
<text text-anchor="start" x="8" y="-165.6" font-family="Times,serif" font-size="13.00">Generated by RailRoady 1.5.1</text>
<text text-anchor="start" x="8" y="-151.6" font-family="Times,serif" font-size="13.00">http://railroady.prestonlee.com</text>
</g>
<!-- Worker -->
<g id="node2" class="node"><title>Worker</title>
<ellipse fill="none" stroke="black" cx="270" cy="-183" rx="38.1938" ry="18"/>
<text text-anchor="middle" x="270" y="-179.3" font-family="Times,serif" font-size="14.00">Worker</text>
</g>
<!-- Operation -->
<g id="node3" class="node"><title>Operation</title>
<ellipse fill="none" stroke="black" cx="270" cy="-90" rx="46.2923" ry="18"/>
<text text-anchor="middle" x="270" y="-86.3" font-family="Times,serif" font-size="14.00">Operation</text>
</g>
<!-- Worker&#45;&gt;Operation -->
<g id="edge1" class="edge"><title>Worker&#45;&gt;Operation</title>
<path fill="none" stroke="#32bbbb" d="M270,-156.729C270,-144.725 270,-130.362 270,-118.129"/>
<ellipse fill="none" stroke="#32bbbb" cx="270" cy="-160.884" rx="4" ry="4"/>
<polygon fill="#32bbbb" stroke="#32bbbb" points="270,-118.04 274.5,-108.04 270,-113.04 270,-108.04 270,-108.04 270,-108.04 270,-113.04 265.5,-108.04 270,-118.04 270,-118.04"/>
</g>
<!-- Inventory -->
<g id="node4" class="node"><title>Inventory</title>
<ellipse fill="none" stroke="black" cx="270" cy="-18" rx="44.6926" ry="18"/>
<text text-anchor="middle" x="270" y="-14.3" font-family="Times,serif" font-size="14.00">Inventory</text>
</g>
<!-- Operation&#45;&gt;Inventory -->
<g id="edge2" class="edge"><title>Operation&#45;&gt;Inventory</title>
<path fill="none" stroke="#1cf9a9" d="M263.5,-63.9868C263.205,-58.2493 263.171,-52.1211 263.398,-46.2929"/>
<ellipse fill="none" stroke="#1cf9a9" cx="263.815" cy="-68.0668" rx="4" ry="4"/>
<polygon fill="#1cf9a9" stroke="#1cf9a9" points="263.4,-46.2517 268.577,-36.5844 263.744,-41.2635 264.087,-36.2753 264.087,-36.2753 264.087,-36.2753 263.744,-41.2635 259.598,-35.9662 263.4,-46.2517 263.4,-46.2517"/>
</g>
<!-- Inventory&#45;&gt;Operation -->
<g id="edge3" class="edge"><title>Inventory&#45;&gt;Operation</title>
<path fill="none" stroke="#287ce9" d="M276.527,-44.5541C276.833,-50.8915 276.824,-57.6756 276.5,-63.9868"/>
<ellipse fill="none" stroke="#287ce9" cx="276.209" cy="-40.2644" rx="4" ry="4"/>
<ellipse fill="#287ce9" stroke="#287ce9" cx="276.185" cy="-68.0668" rx="4" ry="4"/>
</g>
</g>
</svg>
