<?xml version="1.0" encoding="UTF-8" standalone="no"?>
<!DOCTYPE svg PUBLIC "-//W3C//DTD SVG 1.1//EN"
 "http://www.w3.org/Graphics/SVG/1.1/DTD/svg11.dtd">
<!-- Generated by graphviz version 2.38.0 (20140413.2041)
 -->
<!-- Title: models_diagram Pages: 1 -->
<svg width="484pt" height="416pt"
 viewBox="0.00 0.00 484.00 416.00" xmlns="http://www.w3.org/2000/svg" xmlns:xlink="http://www.w3.org/1999/xlink">
<g id="graph0" class="graph" transform="scale(1 1) rotate(0) translate(4 412)">
<title>models_diagram</title>
<polygon fill="none" stroke="none" points="-4,4 -4,-412 480,-412 480,4 -4,4"/>
<!-- _diagram_info -->
<g id="node1" class="node"><title>_diagram_info</title>
<text text-anchor="start" x="8" y="-371.6" font-family="Times,serif" font-size="13.00">Models diagram</text>
<text text-anchor="start" x="8" y="-357.6" font-family="Times,serif" font-size="13.00">Date: Jul 18 2016 &#45; 21:35</text>
<text text-anchor="start" x="8" y="-343.6" font-family="Times,serif" font-size="13.00">Migration version: 20160719021703</text>
<text text-anchor="start" x="8" y="-329.6" font-family="Times,serif" font-size="13.00">Generated by RailRoady 1.5.1</text>
<text text-anchor="start" x="8" y="-315.6" font-family="Times,serif" font-size="13.00">http://railroady.prestonlee.com</text>
</g>
<!-- Worker -->
<g id="node2" class="node"><title>Worker</title>
<path fill="none" stroke="black" d="M244,-286.5C244,-286.5 464,-286.5 464,-286.5 470,-286.5 476,-292.5 476,-298.5 476,-298.5 476,-395.5 476,-395.5 476,-401.5 470,-407.5 464,-407.5 464,-407.5 244,-407.5 244,-407.5 238,-407.5 232,-401.5 232,-395.5 232,-395.5 232,-298.5 232,-298.5 232,-292.5 238,-286.5 244,-286.5"/>
<text text-anchor="middle" x="354" y="-392.3" font-family="Times,serif" font-size="14.00">Worker</text>
<polyline fill="none" stroke="black" points="232,-384.5 476,-384.5 "/>
<text text-anchor="start" x="240" y="-369.3" font-family="Times,serif" font-size="14.00">id :integer</text>
<text text-anchor="start" x="240" y="-354.3" font-family="Times,serif" font-size="14.00">name :character varying</text>
<text text-anchor="start" x="240" y="-339.3" font-family="Times,serif" font-size="14.00">email :character varying</text>
<text text-anchor="start" x="240" y="-324.3" font-family="Times,serif" font-size="14.00">created_at :timestamp without time zone</text>
<text text-anchor="start" x="240" y="-309.3" font-family="Times,serif" font-size="14.00">updated_at :timestamp without time zone</text>
<text text-anchor="start" x="240" y="-294.3" font-family="Times,serif" font-size="14.00">operation_id :integer</text>
</g>
<!-- Operation -->
<g id="node3" class="node"><title>Operation</title>
<path fill="none" stroke="black" d="M244,-158.5C244,-158.5 464,-158.5 464,-158.5 470,-158.5 476,-164.5 476,-170.5 476,-170.5 476,-237.5 476,-237.5 476,-243.5 470,-249.5 464,-249.5 464,-249.5 244,-249.5 244,-249.5 238,-249.5 232,-243.5 232,-237.5 232,-237.5 232,-170.5 232,-170.5 232,-164.5 238,-158.5 244,-158.5"/>
<text text-anchor="middle" x="354" y="-234.3" font-family="Times,serif" font-size="14.00">Operation</text>
<polyline fill="none" stroke="black" points="232,-226.5 476,-226.5 "/>
<text text-anchor="start" x="240" y="-211.3" font-family="Times,serif" font-size="14.00">id :integer</text>
<text text-anchor="start" x="240" y="-196.3" font-family="Times,serif" font-size="14.00">created_at :timestamp without time zone</text>
<text text-anchor="start" x="240" y="-181.3" font-family="Times,serif" font-size="14.00">updated_at :timestamp without time zone</text>
<text text-anchor="start" x="240" y="-166.3" font-family="Times,serif" font-size="14.00">inventory_id :integer</text>
</g>
<!-- Worker&#45;&gt;Operation -->
<g id="edge1" class="edge"><title>Worker&#45;&gt;Operation</title>
<path fill="none" stroke="#e46225" d="M354,-278.177C354,-272.182 354,-266.161 354,-260.287"/>
<ellipse fill="none" stroke="#e46225" cx="354" cy="-282.203" rx="4" ry="4"/>
<polygon fill="#e46225" stroke="#e46225" points="354,-259.913 358.5,-249.913 354,-254.913 354,-249.913 354,-249.913 354,-249.913 354,-254.913 349.5,-249.913 354,-259.913 354,-259.913"/>
</g>
<!-- Inventory -->
<g id="node4" class="node"><title>Inventory</title>
<path fill="none" stroke="black" d="M244,-0.5C244,-0.5 464,-0.5 464,-0.5 470,-0.5 476,-6.5 476,-12.5 476,-12.5 476,-109.5 476,-109.5 476,-115.5 470,-121.5 464,-121.5 464,-121.5 244,-121.5 244,-121.5 238,-121.5 232,-115.5 232,-109.5 232,-109.5 232,-12.5 232,-12.5 232,-6.5 238,-0.5 244,-0.5"/>
<text text-anchor="middle" x="354" y="-106.3" font-family="Times,serif" font-size="14.00">Inventory</text>
<polyline fill="none" stroke="black" points="232,-98.5 476,-98.5 "/>
<text text-anchor="start" x="240" y="-83.3" font-family="Times,serif" font-size="14.00">id :integer</text>
<text text-anchor="start" x="240" y="-68.3" font-family="Times,serif" font-size="14.00">serial :integer</text>
<text text-anchor="start" x="240" y="-53.3" font-family="Times,serif" font-size="14.00">size :integer</text>
<text text-anchor="start" x="240" y="-38.3" font-family="Times,serif" font-size="14.00">description :text</text>
<text text-anchor="start" x="240" y="-23.3" font-family="Times,serif" font-size="14.00">created_at :timestamp without time zone</text>
<text text-anchor="start" x="240" y="-8.3" font-family="Times,serif" font-size="14.00">updated_at :timestamp without time zone</text>
</g>
<!-- Operation&#45;&gt;Inventory -->
<g id="edge2" class="edge"><title>Operation&#45;&gt;Inventory</title>
<path fill="none" stroke="#dd3fba" d="M347.445,-150.283C347.311,-144.279 347.246,-138.09 347.25,-131.907"/>
<ellipse fill="none" stroke="#dd3fba" cx="347.56" cy="-154.388" rx="4" ry="4"/>
<polygon fill="#dd3fba" stroke="#dd3fba" points="347.253,-131.541 351.823,-121.573 347.288,-126.541 347.323,-121.541 347.323,-121.541 347.323,-121.541 347.288,-126.541 342.823,-121.51 347.253,-131.541 347.253,-131.541"/>
</g>
<!-- Inventory&#45;&gt;Operation -->
<g id="edge3" class="edge"><title>Inventory&#45;&gt;Operation</title>
<path fill="none" stroke="#107bcc" d="M360.745,-129.646C360.769,-136.578 360.706,-143.546 360.555,-150.283"/>
<ellipse fill="none" stroke="#107bcc" cx="360.711" cy="-125.541" rx="4" ry="4"/>
<ellipse fill="#107bcc" stroke="#107bcc" cx="360.44" cy="-154.388" rx="4" ry="4"/>
</g>
</g>
</svg>
